<svg fill="#000000" width="199px" height="199px" viewBox="-10.24 -10.24 52.48 52.48" version="1.1" xmlns="http://www.w3.org/2000/svg" stroke="#000000" stroke-width="1.504"><g id="SVGRepo_bgCarrier" stroke-width="0"><path transform="translate(-10.24, -10.24), scale(3.28)" fill="#f2b138" d="M9.166.33a2.25 2.25 0 00-2.332 0l-5.25 3.182A2.25 2.25 0 00.5 5.436v5.128a2.25 2.25 0 001.084 1.924l5.25 3.182a2.25 2.25 0 002.332 0l5.25-3.182a2.25 2.25 0 001.084-1.924V5.436a2.25 2.25 0 00-1.084-1.924L9.166.33z" strokewidth="0"></path></g><g id="SVGRepo_tracerCarrier" stroke-linecap="round" stroke-linejoin="round"></g><g id="SVGRepo_iconCarrier"> <title>circle</title> <path d="M0 16q0 3.264 1.28 6.208t3.392 5.12 5.12 3.424 6.208 1.248 6.208-1.248 5.12-3.424 3.392-5.12 1.28-6.208-1.28-6.208-3.392-5.12-5.088-3.392-6.24-1.28q-3.264 0-6.208 1.28t-5.12 3.392-3.392 5.12-1.28 6.208zM4 16q0-3.264 1.6-6.016t4.384-4.352 6.016-1.632 6.016 1.632 4.384 4.352 1.6 6.016-1.6 6.048-4.384 4.352-6.016 1.6-6.016-1.6-4.384-4.352-1.6-6.048z"></path> </g></svg>